#!OML:ASF F:\VICON\USERDATA\INSTALL\rory3\rory3.ASF
:FULLY-SPECIFIED
:DEGREES
362
root -2.79377 18.5529 -3.30079 363.722 -35.2091 -353.442
lowerback 10.8244 -0.25584 -0.845286
upperback 4.98813 -0.49165 -0.228187
thorax -0.871634 -0.283167 0.295543
lowerneck -0.383416 -1.21323 -6.47879
upperneck 32.2785 -3.14137 5.18381
head 10.5557 -1.84712 2.71237
rclavicle -7.91163e-014 2.46493e-014
rhumerus -30.6686 7.26425 -64.5587
rradius 54.7564
rwrist 9.43436
rhand -29.046 4.31524
rfingers 7.12502
rthumb -2.39618 -25.6511
lclavicle -7.91163e-014 2.46493e-014
lhumerus -39.9694 -0.234838 74.3454
lradius 64.9299
lwrist -3.76569
lhand -24.7851 22.7705
lfingers 7.12502
lthumb 1.71913 52.7433
rfemur -25.4996 12.1699 7.46296
rtibia 34.4582
rfoot -18.8834 -17.7112
rtoes 6.05031
lfemur -19.8984 -1.23894 -11.2607
ltibia 27.558
lfoot -3.16047 4.93427
ltoes -20.2327
363
root -2.74987 18.5389 -3.30069 363.83 -35.1159 -353.433
lowerback 10.958 -0.180544 -0.919806
upperback 5.02252 -0.402295 -0.261843
thorax -0.909233 -0.23966 0.293211
lowerneck -0.387452 -1.20534 -6.43347
upperneck 32.248 -3.13569 5.21685
head 10.5436 -1.83336 2.71678
rclavicle -8.94531e-015 7.15625e-015
rhumerus -30.5105 7.4576 -64.6605
rradius 55.2907
rwrist 9.43987
rhand -29.3055 3.73814
rfingers 7.12502
rthumb -2.64675 -26.2252
lclavicle -8.94531e-015 7.15625e-015
lhumerus -39.8267 -0.655594 74.6143
lradius 65.6443
lwrist -3.75008
lhand -24.863 22.7809
lfingers 7.12502
lthumb 1.64391 52.7543
rfemur -25.82 11.9176 7.2934
rtibia 34.6673
rfoot -18.9055 -17.5842
rtoes 5.97561
lfemur -19.9486 -1.16939 -11.4436
ltibia 27.3209
lfoot -3.39037 4.96138
ltoes -21.0235
364
root -2.70558 18.5233 -3.30095 363.956 -34.9876 -353.379
lowerback 10.9981 -0.142018 -1.07414
upperback 5.06795 -0.368011 -0.293058
thorax -0.883282 -0.225014 0.343834
lowerneck -0.361696 -1.16499 -6.46785
upperneck 32.1817 -3.08552 5.28369
head 10.5104 -1.80566 2.75105
rclavicle -3.4191e-014 -2.46493e-014
rhumerus -30.2819 7.65806 -64.7663
rradius 55.7759
rwrist 9.3941
rhand -29.6482 3.06025
rfingers 7.12502
rthumb -2.97774 -26.8987
lclavicle -3.4191e-014 -2.46493e-014
lhumerus -39.6518 -1.07727 74.8589
lradius 66.3298
lwrist -3.6434
lhand -24.9184 22.8064
lfingers 7.12502
lthumb 1.59037 52.7802
rfemur -26.1469 11.6397 7.07242
rtibia 34.8391
rfoot -18.9068 -17.4491
rtoes 6.17569
lfemur -20.1064 -1.15167 -11.6356
ltibia 27.1387
lfoot -4.42436 5.16414
ltoes -18.7167
365
root -2.6619 18.5145 -3.29854 364.05 -34.9305 -353.369
lowerback 11.033 -0.0519044 -1.15471
upperback 5.16977 -0.259477 -0.347177
thorax -0.797673 -0.173103 0.320529
lowerneck -0.3524 -1.18449 -6.36031
upperneck 32.0557 -3.0945 5.23209
head 10.4581 -1.79856 2.71053
rclavicle 6.16232e-015 -2.38542e-014
rhumerus -29.9875 7.69608 -64.8667
rradius 56.1312
rwrist 9.36853
rhand -29.6546 2.95719
rfingers 7.12502
rthumb -2.98391 -27.0017
lclavicle 6.16232e-015 -2.38542e-014
lhumerus -39.3144 -1.59436 75.068
lradius 66.901
lwrist -3.5474
lhand -24.8332 22.9306
lfingers 7.12502
lthumb 1.67269 52.9038
rfemur -26.3948 11.4944 6.89567
rtibia 34.9774
rfoot -18.7536 -17.3836
rtoes 5.99956
lfemur -20.2052 -1.04717 -11.7906
ltibia 27.0013
lfoot -5.27013 5.26975
ltoes -17.7256
366
root -2.61799 18.5094 -3.2967 364.19 -34.895 -353.503
lowerback 11.1718 0.0657045 -1.11674
upperback 5.24935 -0.104434 -0.379067
thorax -0.792535 -0.0959899 0.248524
lowerneck -0.323353 -1.24682 -6.12884
upperneck 31.9435 -3.15281 5.08614
head 10.4078 -1.80959 2.60985
rclavicle 2.80286e-014 -1.59028e-015
rhumerus -29.7333 7.65991 -65.0055
rradius 56.4202
rwrist 9.45949
rhand -29.7179 2.71571
rfingers 7.12502
rthumb -3.04504 -27.2423
lclavicle 2.80286e-014 -1.59028e-015
lhumerus -39.0145 -2.13443 75.2906
lradius 67.4681
lwrist -3.5695
lhand -24.659 22.8565
lfingers 7.12502
lthumb 1.8409 52.8283
rfemur -26.5958 11.3651 6.86572
rtibia 35.0928
rfoot -18.6068 -17.3355
rtoes 5.48968
lfemur -20.2759 -0.889957 -11.8253
ltibia 26.8968
lfoot -4.4888 5.02297
ltoes -26.9503
367
root -2.57324 18.4975 -3.29739 364.346 -34.7729 -353.603
lowerback 11.3162 0.105344 -1.18326
upperback 5.28103 -0.0611435 -0.356152
thorax -0.838227 -0.0759667 0.304741
lowerneck -0.186894 -1.22328 -6.10681
upperneck 31.7904 -3.09992 5.03075
head 10.3185 -1.78727 2.58898
rclavicle -1.80894e-014 -7.15625e-015
rhumerus -29.489 7.89249 -65.1395
rradius 56.7973
rwrist 9.47137
rhand -29.9081 2.0379
rfingers 7.12502
rthumb -3.22871 -27.9174
lclavicle -1.80894e-014 -7.15625e-015
lhumerus -38.8456 -2.52628 75.5328
lradius 68.0678
lwrist -3.51381
lhand -24.4772 22.6293
lfingers 7.12502
lthumb 2.01646 52.5995
rfemur -26.8221 11.0963 6.81157
rtibia 35.1983
rfoot -18.5307 -17.2576
rtoes 5.37927
lfemur -20.4416 -0.715097 -11.8961
ltibia 26.8282
lfoot -4.89142 4.92193
ltoes -23.0961
368
root -2.52781 18.4815 -3.29536 364.477 -34.6518 -353.647
lowerback 11.4241 0.131527 -1.26603
upperback 5.31416 -0.036945 -0.344504
thorax -0.862421 -0.0656457 0.360556
lowerneck -0.181204 -1.18101 -6.2432
upperneck 31.7716 -3.05101 5.13954
head 10.3102 -1.7682 2.65683
rclavicle -2.32578e-014 1.03368e-014
rhumerus -29.2977 8.23914 -65.2618
rradius 57.2705
rwrist 9.32231
rhand -30.0204 1.51268
rfingers 7.12502
rthumb -3.33713 -28.4409
lclavicle -2.32578e-014 1.03368e-014
lhumerus -38.6046 -2.94231 75.7722
lradius 68.559
lwrist -3.31186
lhand -24.3691 22.6454
lfingers 7.12502
lthumb 2.12084 52.6146
rfemur -27.0683 10.8144 6.69918
rtibia 35.3166
rfoot -18.4242 -17.1777
rtoes 5.24256
lfemur -20.638 -0.509763 -12.0606
ltibia 26.7804
lfoot -6.41818 5.11691
ltoes -13.8439
369
root -2.48147 18.4672 -3.29479 364.671 -34.5506 -353.793
lowerback 11.5152 0.172691 -1.20968
upperback 5.37129 0.0205889 -0.361102
thorax -0.853222 -0.0366753 0.304786
lowerneck -0.277505 -1.15582 -6.35585
upperneck 31.8098 -3.0438 5.31721
head 10.346 -1.75739 2.74249
rclavicle -3.79679e-014 1.82882e-014
rhumerus -29.1434 8.41812 -65.4366
rradius 57.7518
rwrist 9.25714
rhand -30.0007 1.25474
rfingers 7.12502
rthumb -3.31814 -28.6992
lclavicle -3.79679e-014 1.82882e-014
lhumerus -38.2264 -3.43373 75.9625
lradius 68.9532
lwrist -3.15723
lhand -24.2226 22.6547
lfingers 7.12502
lthumb 2.2624 52.6225
rfemur -27.3489 10.5863 6.67433
rtibia 35.4617
rfoot -18.3303 -17.1098
rtoes 4.88887
lfemur -20.8385 -0.335935 -12.1366
ltibia 26.7114
lfoot -6.21656 5.12641
ltoes -16.3349
370
root -2.43614 18.4567 -3.29873 364.871 -34.4483 -353.921
lowerback 11.59 0.221007 -1.21103
upperback 5.44953 0.0814471 -0.394998
thorax -0.813029 -0.00711981 0.263073
lowerneck -0.287679 -1.11579 -6.3904
upperneck 31.7362 -2.99472 5.40041
head 10.3173 -1.72786 2.78204
rclavicle -1.28415e-013 1.66979e-014
rhumerus -28.9203 8.51879 -65.6478
rradius 58.1912
rwrist 9.27318
rhand -29.8732 1.03857
rfingers 7.12502
rthumb -3.19498 -28.9172
lclavicle -1.28415e-013 1.66979e-014
lhumerus -37.7493 -3.99407 76.1006
lradius 69.2621
lwrist -3.11177
lhand -24.1656 22.5376
lfingers 7.12502
lthumb 2.3174 52.5047
rfemur -27.6558 10.3715 6.63866
rtibia 35.6154
rfoot -18.2528 -17.0385
rtoes 4.85446
lfemur -21.0262 -0.117638 -12.2174
ltibia 26.6224
lfoot -6.99849 5.1701
ltoes -14.5182
371
root -2.39153 18.4453 -3.30092 364.985 -34.3793 -353.964
lowerback 11.7254 0.289528 -1.31285
upperback 5.5185 0.157116 -0.433754
thorax -0.81548 0.0283894 0.27086
lowerneck -0.289636 -1.07589 -6.35098
upperneck 31.7009 -2.92382 5.3653
head 10.298 -1.69224 2.76802
rclavicle -5.20816e-014 1.82882e-014
rhumerus -28.5984 8.60572 -65.8527
rradius 58.4248
rwrist 9.26989
rhand -29.9883 0.713872
rfingers 7.12502
rthumb -3.30614 -29.2402
lclavicle -5.20816e-014 1.82882e-014
lhumerus -37.3129 -4.60648 76.2638
lradius 69.5241
lwrist -3.14994
lhand -24.2775 22.6335
lfingers 7.12502
lthumb 2.20937 52.6018
rfemur -27.912 10.2187 6.51964
rtibia 35.7537
rfoot -18.2413 -16.9712
rtoes 5.1556
lfemur -21.1627 0.08506 -12.389
ltibia 26.5496
lfoot -7.47241 5.25944
ltoes -13.6288
